<svg xmlns="http://www.w3.org/2000/svg" width="128" height="32"><rect x="0" y="0" width="4" height="4" style="fill: rgb(255,0,0); stroke: black; stroke-width: 1px;"></rect><rect x="4" y="0" width="4" height="4" style="fill: rgb(255,0,0); stroke: black; stroke-width: 1px;"></rect><rect x="8" y="0" width="4" height="4" style="fill: rgb(255,0,0); stroke: black; stroke-width: 1px;"></rect><rect x="12" y="0" width="4" height="4" style="fill: rgb(255,0,0); stroke: black; stroke-width: 1px;"></rect><rect x="16" y="0" width="4" height="4" style="fill: rgb(255,0,0); stroke: black; stroke-width: 1px;"></rect><rect x="20" y="0" width="4" height="4" style="fill: rgb(255,0,0); stroke: black; stroke-width: 1px;"></rect><rect x="24" y="0" width="4" height="4" style="fill: rgb(255,0,0); stroke: black; stroke-width: 1px;"></rect><rect x="28" y="0" width="4" height="4" style="fill: rgb(255,0,0); stroke: black; stroke-width: 1px;"></rect><rect x="32" y="0" width="4" height="4" style="fill: rgb(255,0,0); stroke: black; stroke-width: 1px;"></rect><rect x="36" y="0" width="4" height="4" style="fill: rgb(0,0,0); stroke: black; stroke-width: 1px;"></rect><rect x="40" y="0" width="4" height="4" style="fill: rgb(0,0,0); stroke: black; stroke-width: 1px;"></rect><rect x="44" y="0" width="4" height="4" style="fill: rgb(0,0,0); stroke: black; stroke-width: 1px;"></rect><rect x="48" y="0" width="4" height="4" style="fill: rgb(0,0,0); stroke: black; stroke-width: 1px;"></rect><rect x="52" y="0" width="4" height="4" style="fill: rgb(0,0,0); stroke: black; stroke-width: 1px;"></rect><rect x="56" y="0" width="4" height="4" style="fill: rgb(0,0,0); stroke: black; stroke-width: 1px;"></rect><rect x="60" y="0" width="4" height="4" style="fill: rgb(0,0,0); stroke: black; stroke-width: 1px;"></rect><rect x="64" y="0" width="4" height="4" style="fill: rgb(0,0,0); stroke: black; stroke-width: 1px;"></rect><rect x="68" y="0" width="4" height="4" style="fill: rgb(0,0,0); stroke: black; stroke-width: 1px;"></rect><rect x="72" y="0" width="4" height="4" style="fill: rgb(0,0,0); stroke: black; stroke-width: 1px;"></rect><rect x="76" y="0" width="4" height="4" style="fill: rgb(0,0,0); stroke: black; stroke-width: 1px;"></rect><rect x="80" y="0" width="4" height="4" style="fill: rgb(0,0,0); stroke: black; stroke-width: 1px;"></rect><rect x="84" y="0" width="4" height="4" style="fill: rgb(0,0,0); stroke: black; stroke-width: 1px;"></rect><rect x="88" y="0" width="4" height="4" style="fill: rgb(0,0,0); stroke: black; stroke-width: 1px;"></rect><rect x="92" y="0" width="4" height="4" style="fill: rgb(0,0,0); stroke: black; stroke-width: 1px;"></rect><rect x="96" y="0" width="4" height="4" style="fill: rgb(0,0,0); stroke: black; stroke-width: 1px;"></rect><rect x="100" y="0" width="4" height="4" style="fill: rgb(0,0,0); stroke: black; stroke-width: 1px;"></rect><rect x="104" y="0" width="4" height="4" style="fill: rgb(0,0,0); stroke: black; stroke-width: 1px;"></rect><rect x="108" y="0" width="4" height="4" style="fill: rgb(0,0,0); stroke: black; stroke-width: 1px;"></rect><rect x="112" y="0" width="4" height="4" style="fill: rgb(0,0,0); stroke: black; stroke-width: 1px;"></rect><rect x="116" y="0" width="4" height="4" style="fill: rgb(0,0,0); stroke: black; stroke-width: 1px;"></rect><rect x="120" y="0" width="4" height="4" style="fill: rgb(0,0,0); stroke: black; stroke-width: 1px;"></rect><rect x="124" y="0" width="4" height="4" style="fill: rgb(0,0,0); stroke: black; stroke-width: 1px;"></rect><rect x="0" y="4" width="4" height="4" style="fill: rgb(255,0,0); stroke: black; stroke-width: 1px;"></rect><rect x="4" y="4" width="4" height="4" style="fill: rgb(255,0,0); stroke: black; stroke-width: 1px;"></rect><rect x="8" y="4" width="4" height="4" style="fill: rgb(255,0,0); stroke: black; stroke-width: 1px;"></rect><rect x="12" y="4" width="4" height="4" style="fill: rgb(255,0,0); stroke: black; stroke-width: 1px;"></rect><rect x="16" y="4" width="4" height="4" style="fill: rgb(255,0,0); stroke: black; stroke-width: 1px;"></rect><rect x="20" y="4" width="4" height="4" style="fill: rgb(255,0,0); stroke: black; stroke-width: 1px;"></rect><rect x="24" y="4" width="4" height="4" style="fill: rgb(255,0,0); stroke: black; stroke-width: 1px;"></rect><rect x="28" y="4" width="4" height="4" style="fill: rgb(255,0,0); stroke: black; stroke-width: 1px;"></rect><rect x="32" y="4" width="4" height="4" style="fill: rgb(255,0,0); stroke: black; stroke-width: 1px;"></rect><rect x="36" y="4" width="4" height="4" style="fill: rgb(0,0,0); stroke: black; stroke-width: 1px;"></rect><rect x="40" y="4" width="4" height="4" style="fill: rgb(0,0,0); stroke: black; stroke-width: 1px;"></rect><rect x="44" y="4" width="4" height="4" style="fill: rgb(0,0,0); stroke: black; stroke-width: 1px;"></rect><rect x="48" y="4" width="4" height="4" style="fill: rgb(0,0,0); stroke: black; stroke-width: 1px;"></rect><rect x="52" y="4" width="4" height="4" style="fill: rgb(0,0,0); stroke: black; stroke-width: 1px;"></rect><rect x="56" y="4" width="4" height="4" style="fill: rgb(0,0,0); stroke: black; stroke-width: 1px;"></rect><rect x="60" y="4" width="4" height="4" style="fill: rgb(0,0,0); stroke: black; stroke-width: 1px;"></rect><rect x="64" y="4" width="4" height="4" style="fill: rgb(0,0,0); stroke: black; stroke-width: 1px;"></rect><rect x="68" y="4" width="4" height="4" style="fill: rgb(0,0,0); stroke: black; stroke-width: 1px;"></rect><rect x="72" y="4" width="4" height="4" style="fill: rgb(0,0,0); stroke: black; stroke-width: 1px;"></rect><rect x="76" y="4" width="4" height="4" style="fill: rgb(0,0,0); stroke: black; stroke-width: 1px;"></rect><rect x="80" y="4" width="4" height="4" style="fill: rgb(0,0,0); stroke: black; stroke-width: 1px;"></rect><rect x="84" y="4" width="4" height="4" style="fill: rgb(0,0,0); stroke: black; stroke-width: 1px;"></rect><rect x="88" y="4" width="4" height="4" style="fill: rgb(0,0,0); stroke: black; stroke-width: 1px;"></rect><rect x="92" y="4" width="4" height="4" style="fill: rgb(0,0,0); stroke: black; stroke-width: 1px;"></rect><rect x="96" y="4" width="4" height="4" style="fill: rgb(0,0,0); stroke: black; stroke-width: 1px;"></rect><rect x="100" y="4" width="4" height="4" style="fill: rgb(0,0,0); stroke: black; stroke-width: 1px;"></rect><rect x="104" y="4" width="4" height="4" style="fill: rgb(0,0,0); stroke: black; stroke-width: 1px;"></rect><rect x="108" y="4" width="4" height="4" style="fill: rgb(0,0,0); stroke: black; stroke-width: 1px;"></rect><rect x="112" y="4" width="4" height="4" style="fill: rgb(0,0,0); stroke: black; stroke-width: 1px;"></rect><rect x="116" y="4" width="4" height="4" style="fill: rgb(0,0,0); stroke: black; stroke-width: 1px;"></rect><rect x="120" y="4" width="4" height="4" style="fill: rgb(0,0,0); stroke: black; stroke-width: 1px;"></rect><rect x="124" y="4" width="4" height="4" style="fill: rgb(0,0,0); stroke: black; stroke-width: 1px;"></rect><rect x="0" y="8" width="4" height="4" style="fill: rgb(255,255,255); stroke: black; stroke-width: 1px;"></rect><rect x="4" y="8" width="4" height="4" style="fill: rgb(0,0,0); stroke: black; stroke-width: 1px;"></rect><rect x="8" y="8" width="4" height="4" style="fill: rgb(0,0,0); stroke: black; stroke-width: 1px;"></rect><rect x="12" y="8" width="4" height="4" style="fill: rgb(0,0,0); stroke: black; stroke-width: 1px;"></rect><rect x="16" y="8" width="4" height="4" style="fill: rgb(255,255,255); stroke: black; stroke-width: 1px;"></rect><rect x="20" y="8" width="4" height="4" style="fill: rgb(0,0,0); stroke: black; stroke-width: 1px;"></rect><rect x="24" y="8" width="4" height="4" style="fill: rgb(0,0,0); stroke: black; stroke-width: 1px;"></rect><rect x="28" y="8" width="4" height="4" style="fill: rgb(0,0,0); stroke: black; stroke-width: 1px;"></rect><rect x="32" y="8" width="4" height="4" style="fill: rgb(255,255,255); stroke: black; stroke-width: 1px;"></rect><rect x="36" y="8" width="4" height="4" style="fill: rgb(0,0,0); stroke: black; stroke-width: 1px;"></rect><rect x="40" y="8" width="4" height="4" style="fill: rgb(0,0,0); stroke: black; stroke-width: 1px;"></rect><rect x="44" y="8" width="4" height="4" style="fill: rgb(0,0,0); stroke: black; stroke-width: 1px;"></rect><rect x="48" y="8" width="4" height="4" style="fill: rgb(0,0,0); stroke: black; stroke-width: 1px;"></rect><rect x="52" y="8" width="4" height="4" style="fill: rgb(255,255,255); stroke: black; stroke-width: 1px;"></rect><rect x="56" y="8" width="4" height="4" style="fill: rgb(0,0,0); stroke: black; stroke-width: 1px;"></rect><rect x="60" y="8" width="4" height="4" style="fill: rgb(0,0,0); stroke: black; stroke-width: 1px;"></rect><rect x="64" y="8" width="4" height="4" style="fill: rgb(255,255,255); stroke: black; stroke-width: 1px;"></rect><rect x="68" y="8" width="4" height="4" style="fill: rgb(255,255,255); stroke: black; stroke-width: 1px;"></rect><rect x="72" y="8" width="4" height="4" style="fill: rgb(255,255,255); stroke: black; stroke-width: 1px;"></rect><rect x="76" y="8" width="4" height="4" style="fill: rgb(0,0,0); stroke: black; stroke-width: 1px;"></rect><rect x="80" y="8" width="4" height="4" style="fill: rgb(0,0,0); stroke: black; stroke-width: 1px;"></rect><rect x="84" y="8" width="4" height="4" style="fill: rgb(0,0,0); stroke: black; stroke-width: 1px;"></rect><rect x="88" y="8" width="4" height="4" style="fill: rgb(255,255,255); stroke: black; stroke-width: 1px;"></rect><rect x="92" y="8" width="4" height="4" style="fill: rgb(255,255,255); stroke: black; stroke-width: 1px;"></rect><rect x="96" y="8" width="4" height="4" style="fill: rgb(255,255,255); stroke: black; stroke-width: 1px;"></rect><rect x="100" y="8" width="4" height="4" style="fill: rgb(0,0,0); stroke: black; stroke-width: 1px;"></rect><rect x="104" y="8" width="4" height="4" style="fill: rgb(255,255,255); stroke: black; stroke-width: 1px;"></rect><rect x="108" y="8" width="4" height="4" style="fill: rgb(255,255,255); stroke: black; stroke-width: 1px;"></rect><rect x="112" y="8" width="4" height="4" style="fill: rgb(255,255,255); stroke: black; stroke-width: 1px;"></rect><rect x="116" y="8" width="4" height="4" style="fill: rgb(0,0,0); stroke: black; stroke-width: 1px;"></rect><rect x="120" y="8" width="4" height="4" style="fill: rgb(0,0,0); stroke: black; stroke-width: 1px;"></rect><rect x="124" y="8" width="4" height="4" style="fill: rgb(0,0,0); stroke: black; stroke-width: 1px;"></rect><rect x="0" y="12" width="4" height="4" style="fill: rgb(255,255,255); stroke: black; stroke-width: 1px;"></rect><rect x="4" y="12" width="4" height="4" style="fill: rgb(255,255,255); stroke: black; stroke-width: 1px;"></rect><rect x="8" y="12" width="4" height="4" style="fill: rgb(255,255,255); stroke: black; stroke-width: 1px;"></rect><rect x="12" y="12" width="4" height="4" style="fill: rgb(0,0,0); stroke: black; stroke-width: 1px;"></rect><rect x="16" y="12" width="4" height="4" style="fill: rgb(255,255,255); stroke: black; stroke-width: 1px;"></rect><rect x="20" y="12" width="4" height="4" style="fill: rgb(0,0,0); stroke: black; stroke-width: 1px;"></rect><rect x="24" y="12" width="4" height="4" style="fill: rgb(255,255,255); stroke: black; stroke-width: 1px;"></rect><rect x="28" y="12" width="4" height="4" style="fill: rgb(0,0,0); stroke: black; stroke-width: 1px;"></rect><rect x="32" y="12" width="4" height="4" style="fill: rgb(255,255,255); stroke: black; stroke-width: 1px;"></rect><rect x="36" y="12" width="4" height="4" style="fill: rgb(0,0,0); stroke: black; stroke-width: 1px;"></rect><rect x="40" y="12" width="4" height="4" style="fill: rgb(0,0,0); stroke: black; stroke-width: 1px;"></rect><rect x="44" y="12" width="4" height="4" style="fill: rgb(0,0,0); stroke: black; stroke-width: 1px;"></rect><rect x="48" y="12" width="4" height="4" style="fill: rgb(255,255,255); stroke: black; stroke-width: 1px;"></rect><rect x="52" y="12" width="4" height="4" style="fill: rgb(255,255,255); stroke: black; stroke-width: 1px;"></rect><rect x="56" y="12" width="4" height="4" style="fill: rgb(0,0,0); stroke: black; stroke-width: 1px;"></rect><rect x="60" y="12" width="4" height="4" style="fill: rgb(0,0,0); stroke: black; stroke-width: 1px;"></rect><rect x="64" y="12" width="4" height="4" style="fill: rgb(0,0,0); stroke: black; stroke-width: 1px;"></rect><rect x="68" y="12" width="4" height="4" style="fill: rgb(0,0,0); stroke: black; stroke-width: 1px;"></rect><rect x="72" y="12" width="4" height="4" style="fill: rgb(255,255,255); stroke: black; stroke-width: 1px;"></rect><rect x="76" y="12" width="4" height="4" style="fill: rgb(0,0,0); stroke: black; stroke-width: 1px;"></rect><rect x="80" y="12" width="4" height="4" style="fill: rgb(255,255,255); stroke: black; stroke-width: 1px;"></rect><rect x="84" y="12" width="4" height="4" style="fill: rgb(0,0,0); stroke: black; stroke-width: 1px;"></rect><rect x="88" y="12" width="4" height="4" style="fill: rgb(0,0,0); stroke: black; stroke-width: 1px;"></rect><rect x="92" y="12" width="4" height="4" style="fill: rgb(0,0,0); stroke: black; stroke-width: 1px;"></rect><rect x="96" y="12" width="4" height="4" style="fill: rgb(255,255,255); stroke: black; stroke-width: 1px;"></rect><rect x="100" y="12" width="4" height="4" style="fill: rgb(0,0,0); stroke: black; stroke-width: 1px;"></rect><rect x="104" y="12" width="4" height="4" style="fill: rgb(255,255,255); stroke: black; stroke-width: 1px;"></rect><rect x="108" y="12" width="4" height="4" style="fill: rgb(0,0,0); stroke: black; stroke-width: 1px;"></rect><rect x="112" y="12" width="4" height="4" style="fill: rgb(255,255,255); stroke: black; stroke-width: 1px;"></rect><rect x="116" y="12" width="4" height="4" style="fill: rgb(0,0,0); stroke: black; stroke-width: 1px;"></rect><rect x="120" y="12" width="4" height="4" style="fill: rgb(0,0,0); stroke: black; stroke-width: 1px;"></rect><rect x="124" y="12" width="4" height="4" style="fill: rgb(0,0,0); stroke: black; stroke-width: 1px;"></rect><rect x="0" y="16" width="4" height="4" style="fill: rgb(255,255,255); stroke: black; stroke-width: 1px;"></rect><rect x="4" y="16" width="4" height="4" style="fill: rgb(0,0,0); stroke: black; stroke-width: 1px;"></rect><rect x="8" y="16" width="4" height="4" style="fill: rgb(0,0,0); stroke: black; stroke-width: 1px;"></rect><rect x="12" y="16" width="4" height="4" style="fill: rgb(0,0,0); stroke: black; stroke-width: 1px;"></rect><rect x="16" y="16" width="4" height="4" style="fill: rgb(255,255,255); stroke: black; stroke-width: 1px;"></rect><rect x="20" y="16" width="4" height="4" style="fill: rgb(0,0,0); stroke: black; stroke-width: 1px;"></rect><rect x="24" y="16" width="4" height="4" style="fill: rgb(0,0,0); stroke: black; stroke-width: 1px;"></rect><rect x="28" y="16" width="4" height="4" style="fill: rgb(0,0,0); stroke: black; stroke-width: 1px;"></rect><rect x="32" y="16" width="4" height="4" style="fill: rgb(255,255,255); stroke: black; stroke-width: 1px;"></rect><rect x="36" y="16" width="4" height="4" style="fill: rgb(0,0,0); stroke: black; stroke-width: 1px;"></rect><rect x="40" y="16" width="4" height="4" style="fill: rgb(0,0,0); stroke: black; stroke-width: 1px;"></rect><rect x="44" y="16" width="4" height="4" style="fill: rgb(0,0,0); stroke: black; stroke-width: 1px;"></rect><rect x="48" y="16" width="4" height="4" style="fill: rgb(0,0,0); stroke: black; stroke-width: 1px;"></rect><rect x="52" y="16" width="4" height="4" style="fill: rgb(255,255,255); stroke: black; stroke-width: 1px;"></rect><rect x="56" y="16" width="4" height="4" style="fill: rgb(0,0,0); stroke: black; stroke-width: 1px;"></rect><rect x="60" y="16" width="4" height="4" style="fill: rgb(0,0,0); stroke: black; stroke-width: 1px;"></rect><rect x="64" y="16" width="4" height="4" style="fill: rgb(0,0,0); stroke: black; stroke-width: 1px;"></rect><rect x="68" y="16" width="4" height="4" style="fill: rgb(0,0,0); stroke: black; stroke-width: 1px;"></rect><rect x="72" y="16" width="4" height="4" style="fill: rgb(255,255,255); stroke: black; stroke-width: 1px;"></rect><rect x="76" y="16" width="4" height="4" style="fill: rgb(0,0,0); stroke: black; stroke-width: 1px;"></rect><rect x="80" y="16" width="4" height="4" style="fill: rgb(0,0,0); stroke: black; stroke-width: 1px;"></rect><rect x="84" y="16" width="4" height="4" style="fill: rgb(0,0,0); stroke: black; stroke-width: 1px;"></rect><rect x="88" y="16" width="4" height="4" style="fill: rgb(255,255,255); stroke: black; stroke-width: 1px;"></rect><rect x="92" y="16" width="4" height="4" style="fill: rgb(255,255,255); stroke: black; stroke-width: 1px;"></rect><rect x="96" y="16" width="4" height="4" style="fill: rgb(255,255,255); stroke: black; stroke-width: 1px;"></rect><rect x="100" y="16" width="4" height="4" style="fill: rgb(0,0,0); stroke: black; stroke-width: 1px;"></rect><rect x="104" y="16" width="4" height="4" style="fill: rgb(255,255,255); stroke: black; stroke-width: 1px;"></rect><rect x="108" y="16" width="4" height="4" style="fill: rgb(0,0,0); stroke: black; stroke-width: 1px;"></rect><rect x="112" y="16" width="4" height="4" style="fill: rgb(255,255,255); stroke: black; stroke-width: 1px;"></rect><rect x="116" y="16" width="4" height="4" style="fill: rgb(0,0,0); stroke: black; stroke-width: 1px;"></rect><rect x="120" y="16" width="4" height="4" style="fill: rgb(0,0,0); stroke: black; stroke-width: 1px;"></rect><rect x="124" y="16" width="4" height="4" style="fill: rgb(0,0,0); stroke: black; stroke-width: 1px;"></rect><rect x="0" y="20" width="4" height="4" style="fill: rgb(255,255,255); stroke: black; stroke-width: 1px;"></rect><rect x="4" y="20" width="4" height="4" style="fill: rgb(0,0,0); stroke: black; stroke-width: 1px;"></rect><rect x="8" y="20" width="4" height="4" style="fill: rgb(255,255,255); stroke: black; stroke-width: 1px;"></rect><rect x="12" y="20" width="4" height="4" style="fill: rgb(255,255,255); stroke: black; stroke-width: 1px;"></rect><rect x="16" y="20" width="4" height="4" style="fill: rgb(255,255,255); stroke: black; stroke-width: 1px;"></rect><rect x="20" y="20" width="4" height="4" style="fill: rgb(0,0,0); stroke: black; stroke-width: 1px;"></rect><rect x="24" y="20" width="4" height="4" style="fill: rgb(255,255,255); stroke: black; stroke-width: 1px;"></rect><rect x="28" y="20" width="4" height="4" style="fill: rgb(0,0,0); stroke: black; stroke-width: 1px;"></rect><rect x="32" y="20" width="4" height="4" style="fill: rgb(255,255,255); stroke: black; stroke-width: 1px;"></rect><rect x="36" y="20" width="4" height="4" style="fill: rgb(0,0,0); stroke: black; stroke-width: 1px;"></rect><rect x="40" y="20" width="4" height="4" style="fill: rgb(0,0,0); stroke: black; stroke-width: 1px;"></rect><rect x="44" y="20" width="4" height="4" style="fill: rgb(0,0,0); stroke: black; stroke-width: 1px;"></rect><rect x="48" y="20" width="4" height="4" style="fill: rgb(0,0,0); stroke: black; stroke-width: 1px;"></rect><rect x="52" y="20" width="4" height="4" style="fill: rgb(255,255,255); stroke: black; stroke-width: 1px;"></rect><rect x="56" y="20" width="4" height="4" style="fill: rgb(0,0,0); stroke: black; stroke-width: 1px;"></rect><rect x="60" y="20" width="4" height="4" style="fill: rgb(0,0,0); stroke: black; stroke-width: 1px;"></rect><rect x="64" y="20" width="4" height="4" style="fill: rgb(0,0,0); stroke: black; stroke-width: 1px;"></rect><rect x="68" y="20" width="4" height="4" style="fill: rgb(0,0,0); stroke: black; stroke-width: 1px;"></rect><rect x="72" y="20" width="4" height="4" style="fill: rgb(255,255,255); stroke: black; stroke-width: 1px;"></rect><rect x="76" y="20" width="4" height="4" style="fill: rgb(0,0,0); stroke: black; stroke-width: 1px;"></rect><rect x="80" y="20" width="4" height="4" style="fill: rgb(255,255,255); stroke: black; stroke-width: 1px;"></rect><rect x="84" y="20" width="4" height="4" style="fill: rgb(0,0,0); stroke: black; stroke-width: 1px;"></rect><rect x="88" y="20" width="4" height="4" style="fill: rgb(255,255,255); stroke: black; stroke-width: 1px;"></rect><rect x="92" y="20" width="4" height="4" style="fill: rgb(0,0,0); stroke: black; stroke-width: 1px;"></rect><rect x="96" y="20" width="4" height="4" style="fill: rgb(0,0,0); stroke: black; stroke-width: 1px;"></rect><rect x="100" y="20" width="4" height="4" style="fill: rgb(0,0,0); stroke: black; stroke-width: 1px;"></rect><rect x="104" y="20" width="4" height="4" style="fill: rgb(255,255,255); stroke: black; stroke-width: 1px;"></rect><rect x="108" y="20" width="4" height="4" style="fill: rgb(0,0,0); stroke: black; stroke-width: 1px;"></rect><rect x="112" y="20" width="4" height="4" style="fill: rgb(255,255,255); stroke: black; stroke-width: 1px;"></rect><rect x="116" y="20" width="4" height="4" style="fill: rgb(0,0,0); stroke: black; stroke-width: 1px;"></rect><rect x="120" y="20" width="4" height="4" style="fill: rgb(0,0,0); stroke: black; stroke-width: 1px;"></rect><rect x="124" y="20" width="4" height="4" style="fill: rgb(0,0,0); stroke: black; stroke-width: 1px;"></rect><rect x="0" y="24" width="4" height="4" style="fill: rgb(255,255,255); stroke: black; stroke-width: 1px;"></rect><rect x="4" y="24" width="4" height="4" style="fill: rgb(0,0,0); stroke: black; stroke-width: 1px;"></rect><rect x="8" y="24" width="4" height="4" style="fill: rgb(0,0,0); stroke: black; stroke-width: 1px;"></rect><rect x="12" y="24" width="4" height="4" style="fill: rgb(0,0,0); stroke: black; stroke-width: 1px;"></rect><rect x="16" y="24" width="4" height="4" style="fill: rgb(255,255,255); stroke: black; stroke-width: 1px;"></rect><rect x="20" y="24" width="4" height="4" style="fill: rgb(0,0,0); stroke: black; stroke-width: 1px;"></rect><rect x="24" y="24" width="4" height="4" style="fill: rgb(0,0,0); stroke: black; stroke-width: 1px;"></rect><rect x="28" y="24" width="4" height="4" style="fill: rgb(0,0,0); stroke: black; stroke-width: 1px;"></rect><rect x="32" y="24" width="4" height="4" style="fill: rgb(255,255,255); stroke: black; stroke-width: 1px;"></rect><rect x="36" y="24" width="4" height="4" style="fill: rgb(0,0,0); stroke: black; stroke-width: 1px;"></rect><rect x="40" y="24" width="4" height="4" style="fill: rgb(0,0,0); stroke: black; stroke-width: 1px;"></rect><rect x="44" y="24" width="4" height="4" style="fill: rgb(0,0,0); stroke: black; stroke-width: 1px;"></rect><rect x="48" y="24" width="4" height="4" style="fill: rgb(255,255,255); stroke: black; stroke-width: 1px;"></rect><rect x="52" y="24" width="4" height="4" style="fill: rgb(255,255,255); stroke: black; stroke-width: 1px;"></rect><rect x="56" y="24" width="4" height="4" style="fill: rgb(255,255,255); stroke: black; stroke-width: 1px;"></rect><rect x="60" y="24" width="4" height="4" style="fill: rgb(0,0,0); stroke: black; stroke-width: 1px;"></rect><rect x="64" y="24" width="4" height="4" style="fill: rgb(0,0,0); stroke: black; stroke-width: 1px;"></rect><rect x="68" y="24" width="4" height="4" style="fill: rgb(0,0,0); stroke: black; stroke-width: 1px;"></rect><rect x="72" y="24" width="4" height="4" style="fill: rgb(255,255,255); stroke: black; stroke-width: 1px;"></rect><rect x="76" y="24" width="4" height="4" style="fill: rgb(0,0,0); stroke: black; stroke-width: 1px;"></rect><rect x="80" y="24" width="4" height="4" style="fill: rgb(0,0,0); stroke: black; stroke-width: 1px;"></rect><rect x="84" y="24" width="4" height="4" style="fill: rgb(0,0,0); stroke: black; stroke-width: 1px;"></rect><rect x="88" y="24" width="4" height="4" style="fill: rgb(255,255,255); stroke: black; stroke-width: 1px;"></rect><rect x="92" y="24" width="4" height="4" style="fill: rgb(255,255,255); stroke: black; stroke-width: 1px;"></rect><rect x="96" y="24" width="4" height="4" style="fill: rgb(255,255,255); stroke: black; stroke-width: 1px;"></rect><rect x="100" y="24" width="4" height="4" style="fill: rgb(0,0,0); stroke: black; stroke-width: 1px;"></rect><rect x="104" y="24" width="4" height="4" style="fill: rgb(255,255,255); stroke: black; stroke-width: 1px;"></rect><rect x="108" y="24" width="4" height="4" style="fill: rgb(255,255,255); stroke: black; stroke-width: 1px;"></rect><rect x="112" y="24" width="4" height="4" style="fill: rgb(255,255,255); stroke: black; stroke-width: 1px;"></rect><rect x="116" y="24" width="4" height="4" style="fill: rgb(0,0,0); stroke: black; stroke-width: 1px;"></rect><rect x="120" y="24" width="4" height="4" style="fill: rgb(0,0,0); stroke: black; stroke-width: 1px;"></rect><rect x="124" y="24" width="4" height="4" style="fill: rgb(0,0,0); stroke: black; stroke-width: 1px;"></rect><rect x="0" y="28" width="4" height="4" style="fill: rgb(255,255,255); stroke: black; stroke-width: 1px;"></rect><rect x="4" y="28" width="4" height="4" style="fill: rgb(255,255,255); stroke: black; stroke-width: 1px;"></rect><rect x="8" y="28" width="4" height="4" style="fill: rgb(255,255,255); stroke: black; stroke-width: 1px;"></rect><rect x="12" y="28" width="4" height="4" style="fill: rgb(255,255,255); stroke: black; stroke-width: 1px;"></rect><rect x="16" y="28" width="4" height="4" style="fill: rgb(255,255,255); stroke: black; stroke-width: 1px;"></rect><rect x="20" y="28" width="4" height="4" style="fill: rgb(255,255,255); stroke: black; stroke-width: 1px;"></rect><rect x="24" y="28" width="4" height="4" style="fill: rgb(255,255,255); stroke: black; stroke-width: 1px;"></rect><rect x="28" y="28" width="4" height="4" style="fill: rgb(255,255,255); stroke: black; stroke-width: 1px;"></rect><rect x="32" y="28" width="4" height="4" style="fill: rgb(255,255,255); stroke: black; stroke-width: 1px;"></rect><rect x="36" y="28" width="4" height="4" style="fill: rgb(0,0,0); stroke: black; stroke-width: 1px;"></rect><rect x="40" y="28" width="4" height="4" style="fill: rgb(0,0,0); stroke: black; stroke-width: 1px;"></rect><rect x="44" y="28" width="4" height="4" style="fill: rgb(0,0,0); stroke: black; stroke-width: 1px;"></rect><rect x="48" y="28" width="4" height="4" style="fill: rgb(0,0,0); stroke: black; stroke-width: 1px;"></rect><rect x="52" y="28" width="4" height="4" style="fill: rgb(0,0,0); stroke: black; stroke-width: 1px;"></rect><rect x="56" y="28" width="4" height="4" style="fill: rgb(0,0,0); stroke: black; stroke-width: 1px;"></rect><rect x="60" y="28" width="4" height="4" style="fill: rgb(0,0,0); stroke: black; stroke-width: 1px;"></rect><rect x="64" y="28" width="4" height="4" style="fill: rgb(0,0,0); stroke: black; stroke-width: 1px;"></rect><rect x="68" y="28" width="4" height="4" style="fill: rgb(0,0,0); stroke: black; stroke-width: 1px;"></rect><rect x="72" y="28" width="4" height="4" style="fill: rgb(0,0,0); stroke: black; stroke-width: 1px;"></rect><rect x="76" y="28" width="4" height="4" style="fill: rgb(0,0,0); stroke: black; stroke-width: 1px;"></rect><rect x="80" y="28" width="4" height="4" style="fill: rgb(0,0,0); stroke: black; stroke-width: 1px;"></rect><rect x="84" y="28" width="4" height="4" style="fill: rgb(0,0,0); stroke: black; stroke-width: 1px;"></rect><rect x="88" y="28" width="4" height="4" style="fill: rgb(0,0,0); stroke: black; stroke-width: 1px;"></rect><rect x="92" y="28" width="4" height="4" style="fill: rgb(0,0,0); stroke: black; stroke-width: 1px;"></rect><rect x="96" y="28" width="4" height="4" style="fill: rgb(0,0,0); stroke: black; stroke-width: 1px;"></rect><rect x="100" y="28" width="4" height="4" style="fill: rgb(0,0,0); stroke: black; stroke-width: 1px;"></rect><rect x="104" y="28" width="4" height="4" style="fill: rgb(0,0,0); stroke: black; stroke-width: 1px;"></rect><rect x="108" y="28" width="4" height="4" style="fill: rgb(0,0,0); stroke: black; stroke-width: 1px;"></rect><rect x="112" y="28" width="4" height="4" style="fill: rgb(0,0,0); stroke: black; stroke-width: 1px;"></rect><rect x="116" y="28" width="4" height="4" style="fill: rgb(0,0,0); stroke: black; stroke-width: 1px;"></rect><rect x="120" y="28" width="4" height="4" style="fill: rgb(0,0,0); stroke: black; stroke-width: 1px;"></rect><rect x="124" y="28" width="4" height="4" style="fill: rgb(0,0,0); stroke: black; stroke-width: 1px;"></rect></svg>